<svg width="12" height="12" viewBox="0 0 12 12" fill="none" xmlns="http://www.w3.org/2000/svg">
<path d="M6.72939 1.80246L7.64759 3.59192C7.7728 3.84102 8.10669 4.07995 8.38841 4.12571L10.0526 4.39514C11.1169 4.56799 11.3673 5.32037 10.6004 6.06259L9.30661 7.32335C9.08749 7.53686 8.9675 7.94864 9.03532 8.24349L9.40573 9.80419C9.69789 11.0395 9.02489 11.5174 7.90322 10.8718L6.34333 9.97195C6.06161 9.80927 5.5973 9.80927 5.31036 9.97195L3.75045 10.8718C2.634 11.5174 1.95579 11.0344 2.24794 9.80419L2.61835 8.24349C2.68617 7.94864 2.56618 7.53686 2.34707 7.32335L1.05324 6.06259C0.291556 5.32037 0.536756 4.56799 1.60103 4.39514L3.26527 4.12571C3.54177 4.07995 3.87566 3.84102 4.00087 3.59192L4.91908 1.80246C5.41992 0.831472 6.23377 0.831472 6.72939 1.80246Z" fill="url(#paint0_linear_16435_4961)" stroke="#55A6C4" stroke-width="0.280143" stroke-linecap="round" stroke-linejoin="round"/>
<defs>
<linearGradient id="paint0_linear_16435_4961" x1="0.623939" y1="6.1168" x2="13.2332" y2="6.1168" gradientUnits="userSpaceOnUse">
<stop offset="0.35" stop-color="#55A6C4"/>
<stop offset="0.40635" stop-color="white"/>
</linearGradient>
</defs>
</svg>
